<svg viewBox="0 0 1100 720" xmlns="http://www.w3.org/2000/svg" font-family="'Segoe UI', Arial, sans-serif">

 <!-- Background -->
 <rect width="1100" height="720" fill="#0f1117"/>

 <!-- Title -->
 <text x="550" y="42" text-anchor="middle" font-size="20" font-weight="700" fill="#ffffff">
 Acme Media Ad Events Streaming Pipeline
 </text>
 <text x="550" y="64" text-anchor="middle" font-size="13" fill="#8b9ab0">
 Spark Structured Streaming Lakeflow Declarative Pipelines Medallion Architecture
 </text>

 <!-- SOURCES -->
 <rect x="30" y="100" width="155" height="480" rx="10" fill="#1a1f2e" stroke="#3a4560" stroke-width="1.5"/>
 <text x="107" y="125" text-anchor="middle" font-size="13" font-weight="600" fill="#8b9ab0">SOURCES</text>

 <!-- Kafka -->
 <rect x="50" y="140" width="115" height="64" rx="8" fill="#1e2d40" stroke="#2563eb" stroke-width="1.5"/>
 <text x="107" y="163" text-anchor="middle" font-size="12" font-weight="700" fill="#60a5fa">Kafka</text>
 <text x="107" y="179" text-anchor="middle" font-size="10" fill="#94a3b8">Click / Impression</text>
 <text x="107" y="193" text-anchor="middle" font-size="10" fill="#94a3b8">Conversion events</text>

 <!-- S3/ADLS -->
 <rect x="50" y="224" width="115" height="64" rx="8" fill="#1e2d40" stroke="#2563eb" stroke-width="1.5"/>
 <text x="107" y="247" text-anchor="middle" font-size="12" font-weight="700" fill="#60a5fa">S3 / ADLS</text>
 <text x="107" y="263" text-anchor="middle" font-size="10" fill="#94a3b8">Landing zone</text>
 <text x="107" y="277" text-anchor="middle" font-size="10" fill="#94a3b8">JSON files</text>

 <!-- Partner feeds -->
 <rect x="50" y="308" width="115" height="64" rx="8" fill="#1e2d40" stroke="#2563eb" stroke-width="1.5"/>
 <text x="107" y="331" text-anchor="middle" font-size="12" font-weight="700" fill="#60a5fa">Partner Feeds</text>
 <text x="107" y="347" text-anchor="middle" font-size="10" fill="#94a3b8">Publisher events</text>
 <text x="107" y="361" text-anchor="middle" font-size="10" fill="#94a3b8">Experian data</text>

 <!-- AUTO LOADER -->
 <rect x="230" y="220" width="130" height="68" rx="8" fill="#1c2b1e" stroke="#16a34a" stroke-width="1.5"/>
 <text x="295" y="249" text-anchor="middle" font-size="12" font-weight="700" fill="#4ade80">Auto Loader</text>
 <text x="295" y="265" text-anchor="middle" font-size="10" fill="#86efac">cloudFiles</text>
 <text x="295" y="279" text-anchor="middle" font-size="10" fill="#86efac">schema evolution</text>

 <!-- Source Auto Loader arrows -->
 <line x1="165" y1="172" x2="230" y2="254" stroke="#2563eb" stroke-width="1.5" stroke-dasharray="5,3" marker-end="url(#arr-blue)"/>
 <line x1="165" y1="254" x2="230" y2="254" stroke="#2563eb" stroke-width="1.5" stroke-dasharray="5,3" marker-end="url(#arr-blue)"/>
 <line x1="165" y1="340" x2="230" y2="265" stroke="#2563eb" stroke-width="1.5" stroke-dasharray="5,3" marker-end="url(#arr-blue)"/>

 <!-- BRONZE -->
 <rect x="410" y="100" width="160" height="480" rx="10" fill="#271d10" stroke="#92400e" stroke-width="1.5"/>
 <text x="490" y="125" text-anchor="middle" font-size="13" font-weight="600" fill="#d97706"> BRONZE</text>

 <rect x="428" y="140" width="124" height="100" rx="8" fill="#2d1f0e" stroke="#b45309" stroke-width="1.5"/>
 <text x="490" y="162" text-anchor="middle" font-size="11" font-weight="700" fill="#fbbf24">bronze_ad_events</text>
 <text x="490" y="180" text-anchor="middle" font-size="10" fill="#d97706">Raw append-only</text>
 <text x="490" y="196" text-anchor="middle" font-size="10" fill="#d97706">No transforms</text>
 <text x="490" y="212" text-anchor="middle" font-size="10" fill="#d97706">Full fidelity</text>

 <rect x="428" y="256" width="124" height="80" rx="6" fill="#1a1505" stroke="#78350f" stroke-width="1"/>
 <text x="490" y="277" text-anchor="middle" font-size="10" font-weight="600" fill="#a16207">Schema</text>
 <text x="490" y="293" text-anchor="middle" font-size="9" fill="#92400e">event_id, event_type</text>
 <text x="490" y="307" text-anchor="middle" font-size="9" fill="#92400e">consumer_id, campaign_id</text>
 <text x="490" y="321" text-anchor="middle" font-size="9" fill="#92400e">bid_price, revenue_usd</text>

 <!-- Auto Loader Bronze -->
 <line x1="360" y1="254" x2="410" y2="200" stroke="#16a34a" stroke-width="2" marker-end="url(#arr-green)"/>
 <text x="385" y="225" text-anchor="middle" font-size="10" fill="#4ade80">stream</text>

 <!-- SILVER -->
 <rect x="625" y="100" width="165" height="480" rx="10" fill="#0f1f2b" stroke="#1d4ed8" stroke-width="1.5"/>
 <text x="707" y="125" text-anchor="middle" font-size="13" font-weight="600" fill="#60a5fa"> SILVER</text>

 <rect x="643" y="140" width="129" height="110" rx="8" fill="#0c1929" stroke="#2563eb" stroke-width="1.5"/>
 <text x="707" y="162" text-anchor="middle" font-size="11" font-weight="700" fill="#93c5fd">silver_ad_events</text>
 <text x="707" y="180" text-anchor="middle" font-size="10" fill="#60a5fa">Deduped (event_id)</text>
 <text x="707" y="196" text-anchor="middle" font-size="10" fill="#60a5fa">Consent-filtered</text>
 <text x="707" y="212" text-anchor="middle" font-size="10" fill="#60a5fa">Watermark: 10 min</text>
 <text x="707" y="228" text-anchor="middle" font-size="10" fill="#60a5fa">CDF enabled</text>

 <!-- DQ Expectations box -->
 <rect x="643" y="268" width="129" height="100" rx="6" fill="#0a1520" stroke="#1d4ed8" stroke-width="1"/>
 <text x="707" y="287" text-anchor="middle" font-size="10" font-weight="600" fill="#3b82f6">DLT Expectations</text>
 <text x="707" y="303" text-anchor="middle" font-size="9" fill="#94a3b8">- valid event_type</text>
 <text x="707" y="317" text-anchor="middle" font-size="9" fill="#94a3b8">- consent_flag=true</text>
 <text x="707" y="331" text-anchor="middle" font-size="9" fill="#94a3b8">- non-null event_id</text>
 <text x="707" y="345" text-anchor="middle" font-size="9" fill="#94a3b8">- non-null campaign</text>

 <!-- Bronze Silver -->
 <line x1="570" y1="200" x2="625" y2="200" stroke="#b45309" stroke-width="2" marker-end="url(#arr-orange)"/>
 <text x="597" y="192" text-anchor="middle" font-size="10" fill="#fbbf24">stream</text>

 <!-- GOLD -->
 <rect x="850" y="100" width="220" height="480" rx="10" fill="#1a1f0a" stroke="#4d7c0f" stroke-width="1.5"/>
 <text x="960" y="125" text-anchor="middle" font-size="13" font-weight="600" fill="#a3e635"> GOLD</text>

 <!-- Campaign perf table -->
 <rect x="865" y="140" width="190" height="130" rx="8" fill="#141a06" stroke="#65a30d" stroke-width="1.5"/>
 <text x="960" y="163" text-anchor="middle" font-size="11" font-weight="700" fill="#bef264">campaign_performance</text>
 <text x="960" y="179" text-anchor="middle" font-size="10" fill="#84cc16">_hourly</text>
 <text x="960" y="198" text-anchor="middle" font-size="10" fill="#a3e635">impressions, clicks</text>
 <text x="960" y="214" text-anchor="middle" font-size="10" fill="#a3e635">conversions, CTR, CVR</text>
 <text x="960" y="230" text-anchor="middle" font-size="10" fill="#a3e635">eCPM, revenue_usd</text>
 <text x="960" y="246" text-anchor="middle" font-size="10" fill="#a3e635">unique_consumers</text>

 <!-- Consumer signals table -->
 <rect x="865" y="290" width="190" height="130" rx="8" fill="#141a06" stroke="#65a30d" stroke-width="1.5"/>
 <text x="960" y="313" text-anchor="middle" font-size="11" font-weight="700" fill="#bef264">consumer_daily</text>
 <text x="960" y="329" text-anchor="middle" font-size="10" fill="#84cc16">_signals</text>
 <text x="960" y="348" text-anchor="middle" font-size="10" fill="#a3e635">daily clicks/impressions</text>
 <text x="960" y="364" text-anchor="middle" font-size="10" fill="#a3e635">daily_revenue_usd</text>
 <text x="960" y="380" text-anchor="middle" font-size="10" fill="#a3e635">engagement_score</text>
 <text x="960" y="396" text-anchor="middle" font-size="10" fill="#a3e635">advertisers_interacted</text>

 <!-- Silver Gold arrows -->
 <line x1="790" y1="200" x2="850" y2="210" stroke="#2563eb" stroke-width="2" marker-end="url(#arr-lime)"/>
 <line x1="790" y1="200" x2="850" y2="355" stroke="#2563eb" stroke-width="2" marker-end="url(#arr-lime)"/>

 <!-- CONSUMERS -->
 <rect x="30" y="610" width="1040" height="88" rx="10" fill="#15101e" stroke="#7c3aed" stroke-width="1.5"/>
 <text x="550" y="634" text-anchor="middle" font-size="13" font-weight="600" fill="#a78bfa">DOWNSTREAM CONSUMERS</text>

 <rect x="50" y="645" width="190" height="40" rx="6" fill="#1e1530" stroke="#7c3aed" stroke-width="1"/>
 <text x="145" y="666" text-anchor="middle" font-size="11" fill="#c4b5fd"> Live Campaign Dashboard</text>
 <text x="145" y="680" text-anchor="middle" font-size="9" fill="#8b5cf6"> gold_campaign_performance_hourly</text>

 <rect x="265" y="645" width="190" height="40" rx="6" fill="#1e1530" stroke="#7c3aed" stroke-width="1"/>
 <text x="360" y="666" text-anchor="middle" font-size="11" fill="#c4b5fd"> ML Training Pipeline</text>
 <text x="360" y="680" text-anchor="middle" font-size="9" fill="#8b5cf6"> gold_consumer_daily_signals</text>

 <rect x="480" y="645" width="190" height="40" rx="6" fill="#1e1530" stroke="#7c3aed" stroke-width="1"/>
 <text x="575" y="666" text-anchor="middle" font-size="11" fill="#c4b5fd"> Identity Graph Scoring</text>
 <text x="575" y="680" text-anchor="middle" font-size="9" fill="#8b5cf6">engagement_score propensity model</text>

 <rect x="695" y="645" width="190" height="40" rx="6" fill="#1e1530" stroke="#7c3aed" stroke-width="1"/>
 <text x="790" y="666" text-anchor="middle" font-size="11" fill="#c4b5fd"> Delta Sharing (Databricks)</text>
 <text x="790" y="680" text-anchor="middle" font-size="9" fill="#8b5cf6">privacy-first partner data sharing</text>

 <rect x="910" y="645" width="148" height="40" rx="6" fill="#1e1530" stroke="#7c3aed" stroke-width="1"/>
 <text x="984" y="666" text-anchor="middle" font-size="11" fill="#c4b5fd"> Advertiser Reporting</text>
 <text x="984" y="680" text-anchor="middle" font-size="9" fill="#8b5cf6">CPA / CPL billing reconciliation</text>

 <!-- Gold Consumers -->
 <line x1="960" y1="580" x2="550" y2="610" stroke="#65a30d" stroke-width="1.5" stroke-dasharray="5,3"/>

 <!-- LEGEND -->
 <rect x="230" y="540" width="640" height="52" rx="8" fill="#0f1117" stroke="#374151" stroke-width="1"/>
 <text x="550" y="558" text-anchor="middle" font-size="11" font-weight="600" fill="#9ca3af">LEGEND</text>
 <line x1="260" y1="574" x2="290" y2="574" stroke="#2563eb" stroke-width="2" stroke-dasharray="5,3"/>
 <text x="310" y="578" font-size="10" fill="#9ca3af">Streaming ingest</text>
 <line x1="400" y1="574" x2="430" y2="574" stroke="#16a34a" stroke-width="2"/>
 <text x="450" y="578" font-size="10" fill="#9ca3af">Auto Loader stream</text>
 <line x1="560" y1="574" x2="590" y2="574" stroke="#b45309" stroke-width="2"/>
 <text x="610" y="578" font-size="10" fill="#9ca3af">BronzeSilver stream</text>
 <line x1="720" y1="574" x2="750" y2="574" stroke="#4d7c0f" stroke-width="2"/>
 <text x="770" y="578" font-size="10" fill="#9ca3af">SilverGold batch MV</text>

 <!-- Arrowhead markers -->
 <defs>
 <marker id="arr-blue" markerWidth="8" markerHeight="8" refX="6" refY="3" orient="auto">
 <path d="M0,0 L0,6 L8,3 z" fill="#2563eb"/>
 </marker>
 <marker id="arr-green" markerWidth="8" markerHeight="8" refX="6" refY="3" orient="auto">
 <path d="M0,0 L0,6 L8,3 z" fill="#16a34a"/>
 </marker>
 <marker id="arr-orange" markerWidth="8" markerHeight="8" refX="6" refY="3" orient="auto">
 <path d="M0,0 L0,6 L8,3 z" fill="#b45309"/>
 </marker>
 <marker id="arr-lime" markerWidth="8" markerHeight="8" refX="6" refY="3" orient="auto">
 <path d="M0,0 L0,6 L8,3 z" fill="#4d7c0f"/>
 </marker>
 </defs>
</svg>
